{
  "accessors": [
    {
      "bufferView": 2,
      "componentType": 5126,
      "count": 3776,
      "max": [
        140.64279174804688,
        23.09465217590332,
        46.34284973144531
      ],
      "min": [
        76.4004135131836,
        -42.219905853271484,
        8.952415466308594
      ],
      "type": "VEC3"
    },
    {
      "bufferView": 2,
      "byteOffset": 45312,
      "componentType": 5126,
      "count": 3776,
      "max": [
        0.9999690055847168,
        0.9983919858932495,
        1.0
      ],
      "min": [
        -0.9966380000114441,
        -0.9977447390556335,
        -0.7792377471923828
      ],
      "type": "VEC3"
    },
    {
      "bufferView": 1,
      "componentType": 5126,
      "count": 3776,
      "max": [
        0.99169921875,
        0.9622802734375
      ],
      "min": [
        0.0112762451171875,
        0.013671875
      ],
      "type": "VEC2"
    },
    {
      "bufferView": 0,
      "componentType": 5125,
      "count": 17280,
      "type": "SCALAR"
    },
    {
      "bufferView": 2,
      "byteOffset": 90624,
      "componentType": 5126,
      "count": 1712,
      "max": [
        115.92855834960938,
        42.219905853271484,
        -17.286901473999023
      ],
      "min": [
        -140.64279174804688,
        -24.791627883911133,
        -102.49323272705078
      ],
      "type": "VEC3"
    },
    {
      "bufferView": 2,
      "byteOffset": 111168,
      "componentType": 5126,
      "count": 1712,
      "max": [
        1.0,
        0.9999690055847168,
        1.0
      ],
      "min": [
        -1.0,
        -1.0,
        -1.0
      ],
      "type": "VEC3"
    },
    {
      "bufferView": 1,
      "byteOffset": 30208,
      "componentType": 5126,
      "count": 1712,
      "max": [
        0.0,
        1.0
      ],
      "min": [
        0.0,
        1.0
      ],
      "type": "VEC2"
    },
    {
      "bufferView": 0,
      "byteOffset": 69120,
      "componentType": 5125,
      "count": 2391,
      "type": "SCALAR"
    },
    {
      "bufferView": 2,
      "byteOffset": 131712,
      "componentType": 5126,
      "count": 129,
      "max": [
        91.00533294677734,
        -17.692541122436523,
        102.49323272705078
      ],
      "min": [
        -114.17786407470703,
        -26.150941848754883,
        -0.36414697766304016
      ],
      "type": "VEC3"
    },
    {
      "bufferView": 2,
      "byteOffset": 133260,
      "componentType": 5126,
      "count": 129,
      "max": [
        0.9999690055847168,
        1.0,
        0.9999690055847168
      ],
      "min": [
        -0.9999690055847168,
        -1.0,
        -0.9999690055847168
      ],
      "type": "VEC3"
    },
    {
      "bufferView": 1,
      "byteOffset": 43904,
      "componentType": 5126,
      "count": 129,
      "max": [
        0.0,
        1.0
      ],
      "min": [
        0.0,
        1.0
      ],
      "type": "VEC2"
    },
    {
      "bufferView": 0,
      "byteOffset": 78684,
      "componentType": 5125,
      "count": 531,
      "type": "SCALAR"
    },
    {
      "bufferView": 2,
      "byteOffset": 134808,
      "componentType": 5126,
      "count": 22,
      "max": [
        85.34146881103516,
        -20.512006759643555,
        96.82986450195313
      ],
      "min": [
        -108.51400756835938,
        -20.512008666992188,
        5.299231052398682
      ],
      "type": "VEC3"
    },
    {
      "bufferView": 2,
      "byteOffset": 135072,
      "componentType": 5126,
      "count": 22,
      "max": [
        0.0,
        1.0,
        0.0
      ],
      "min": [
        0.0,
        1.0,
        0.0
      ],
      "type": "VEC3"
    },
    {
      "bufferView": 1,
      "byteOffset": 44936,
      "componentType": 5126,
      "count": 22,
      "max": [
        0.0,
        1.0
      ],
      "min": [
        0.0,
        1.0
      ],
      "type": "VEC2"
    },
    {
      "bufferView": 0,
      "byteOffset": 80808,
      "componentType": 5125,
      "count": 90,
      "type": "SCALAR"
    },
    {
      "bufferView": 2,
      "byteOffset": 135336,
      "componentType": 5126,
      "count": 1347,
      "max": [
        116.771484375,
        1.614076018333435,
        14.325644493103027
      ],
      "min": [
        -81.97746276855469,
        -23.232290267944336,
        -17.626771926879883
      ],
      "type": "VEC3"
    },
    {
      "bufferView": 2,
      "byteOffset": 151500,
      "componentType": 5126,
      "count": 1347,
      "max": [
        1.0,
        1.0,
        1.0
      ],
      "min": [
        -1.0,
        -1.0,
        -0.9999690055847168
      ],
      "type": "VEC3"
    },
    {
      "bufferView": 1,
      "byteOffset": 45112,
      "componentType": 5126,
      "count": 1347,
      "max": [
        0.99169921875,
        1.0
      ],
      "min": [
        0.0,
        0.0
      ],
      "type": "VEC2"
    },
    {
      "bufferView": 0,
      "byteOffset": 81168,
      "componentType": 5125,
      "count": 4011,
      "type": "SCALAR"
    }
  ],
  "asset": {
    "extras": {
      "author": "UnrealAryan (https://sketchfab.com/UnrealAryan)",
      "license": "CC-BY-4.0 (http://creativecommons.org/licenses/by/4.0/)",
      "source": "https://sketchfab.com/3d-models/vanity-sink-65f340b008cf47418c6e1af14c5f7979",
      "title": "Vanity Sink"
    },
    "generator": "Sketchfab-15.37.0",
    "version": "2.0"
  },
  "bufferViews": [
    {
      "buffer": 0,
      "byteLength": 97212,
      "name": "floatBufferViews",
      "target": 34963
    },
    {
      "buffer": 0,
      "byteLength": 55888,
      "byteOffset": 97212,
      "byteStride": 8,
      "name": "floatBufferViews",
      "target": 34962
    },
    {
      "buffer": 0,
      "byteLength": 167664,
      "byteOffset": 153100,
      "byteStride": 12,
      "name": "floatBufferViews",
      "target": 34962
    }
  ],
  "buffers": [
    {
      "byteLength": 320764,
      "uri": "scene.bin"
    }
  ],
  "materials": [
    {
      "doubleSided": true,
      "name": "M_Plants_2",
      "pbrMetallicRoughness": {
        "baseColorFactor": [
          0.215861,
          0.215861,
          0.215861,
          1.0
        ],
        "metallicFactor": 0.0,
        "roughnessFactor": 0.6
      }
    },
    {
      "doubleSided": true,
      "name": "MI_Chromium_se4pdcxc_4K",
      "pbrMetallicRoughness": {
        "baseColorFactor": [
          0.215861,
          0.215861,
          0.215861,
          1.0
        ],
        "metallicFactor": 0.0,
        "roughnessFactor": 0.9577051494623774
      }
    },
    {
      "doubleSided": true,
      "name": "MI_Painted_Gun_Metal_shrbbavc_4K",
      "pbrMetallicRoughness": {
        "baseColorFactor": [
          0.215861,
          0.215861,
          0.215861,
          1.0
        ],
        "metallicFactor": 0.0,
        "roughnessFactor": 0.9577051494623774
      }
    },
    {
      "doubleSided": true,
      "name": "mirror",
      "pbrMetallicRoughness": {
        "baseColorFactor": [
          0.000303527,
          0.000303527,
          0.000303527,
          1.0
        ],
        "metallicFactor": 0.0,
        "roughnessFactor": 0.9577051494623774
      }
    },
    {
      "doubleSided": true,
      "name": "MI_Hot_Blued_Steel_shkxcgfc_4K",
      "pbrMetallicRoughness": {
        "baseColorFactor": [
          0.215861,
          0.215861,
          0.215861,
          1.0
        ],
        "metallicFactor": 0.0,
        "roughnessFactor": 0.9577051494623774
      }
    }
  ],
  "meshes": [
    {
      "name": "Merge_EF9F4FD0_M_Plants_2_0",
      "primitives": [
        {
          "attributes": {
            "NORMAL": 1,
            "POSITION": 0,
            "TEXCOORD_0": 2
          },
          "indices": 3,
          "material": 0,
          "mode": 4
        }
      ]
    },
    {
      "name": "Merge_EF9F4FD0_MI_Chromium_se4pdcxc_4K_0",
      "primitives": [
        {
          "attributes": {
            "NORMAL": 5,
            "POSITION": 4,
            "TEXCOORD_0": 6
          },
          "indices": 7,
          "material": 1,
          "mode": 4
        }
      ]
    },
    {
      "name": "Merge_EF9F4FD0_MI_Painted_Gun_Metal_shrbbavc_4K_0",
      "primitives": [
        {
          "attributes": {
            "NORMAL": 9,
            "POSITION": 8,
            "TEXCOORD_0": 10
          },
          "indices": 11,
          "material": 2,
          "mode": 4
        }
      ]
    },
    {
      "name": "Merge_EF9F4FD0_mirror_0",
      "primitives": [
        {
          "attributes": {
            "NORMAL": 13,
            "POSITION": 12,
            "TEXCOORD_0": 14
          },
          "indices": 15,
          "material": 3,
          "mode": 4
        }
      ]
    },
    {
      "name": "Merge_EF9F4FD0_MI_Hot_Blued_Steel_shkxcgfc_4K_0",
      "primitives": [
        {
          "attributes": {
            "NORMAL": 17,
            "POSITION": 16,
            "TEXCOORD_0": 18
          },
          "indices": 19,
          "material": 4,
          "mode": 4
        }
      ]
    }
  ],
  "nodes": [
    {
      "children": [
        1
      ],
      "matrix": [
        1.0,
        1.6081226229577292e-16,
        6.340815480754295e-32,
        0.0,
        1.7853747624282703e-32,
        -5.053215392444312e-16,
        1.0,
        0.0,
        1.6081226229577292e-16,
        -1.0,
        -5.053215392444312e-16,
        0.0,
        0.0,
        0.0,
        0.0,
        1.0
      ],
      "name": "Sketchfab_model"
    },
    {
      "children": [
        2
      ],
      "matrix": [
        0.009999999776482582,
        0.0,
        0.0,
        0.0,
        0.0,
        -0.009999999776482582,
        0.0,
        0.0,
        0.0,
        0.0,
        -0.009999999776482582,
        0.0,
        0.0,
        0.0,
        0.0,
        1.0
      ],
      "name": "e07e06c9e38f43ecbe05d8dbae3d9e2f.fbx"
    },
    {
      "children": [
        3
      ],
      "name": "RootNode"
    },
    {
      "children": [
        4,
        5,
        6,
        7,
        8
      ],
      "name": "Merge_EF9F4FD0"
    },
    {
      "mesh": 0,
      "name": "Merge_EF9F4FD0_M_Plants_2_0"
    },
    {
      "mesh": 1,
      "name": "Merge_EF9F4FD0_MI_Chromium_se4pdcxc_4K_0"
    },
    {
      "mesh": 2,
      "name": "Merge_EF9F4FD0_MI_Painted_Gun_Metal_shrbbavc_4K_0"
    },
    {
      "mesh": 3,
      "name": "Merge_EF9F4FD0_mirror_0"
    },
    {
      "mesh": 4,
      "name": "Merge_EF9F4FD0_MI_Hot_Blued_Steel_shkxcgfc_4K_0"
    }
  ],
  "scene": 0,
  "scenes": [
    {
      "name": "Sketchfab_Scene",
      "nodes": [
        0
      ]
    }
  ]
}
