{
	"asset":{
		"generator":"Khronos glTF Blender I/O v3.5.30",
		"version":"2.0"
	},
	"scene":0,
	"scenes":[
		{
			"name":"Scene",
			"nodes":[
				0
			]
		}
	],
	"nodes":[
		{
			"mesh":0,
			"name":"Object_14"
		}
	],
	"materials":[
		{
			"doubleSided":true,
			"name":"Zasl_Lesson3_Exercise2_Material2",
			"pbrMetallicRoughness":{
				"baseColorFactor":[
					0.800000011920929,
					0.3475489914417267,
					0.65174400806427,
					1
				],
				"metallicFactor":0,
				"roughnessFactor":0.5
			}
		}
	],
	"meshes":[
		{
			"name":"Object_5",
			"primitives":[
				{
					"attributes":{
						"POSITION":0,
						"TEXCOORD_0":1,
						"NORMAL":2
					},
					"indices":3,
					"material":0
				}
			]
		}
	],
	"accessors":[
		{
			"bufferView":0,
			"componentType":5126,
			"count":899,
			"max":[
				0.699999988079071,
				0.7500000596046448,
				0.3499999940395355
			],
			"min":[
				-0.699999988079071,
				9.536742595628311e-08,
				-0.3499999940395355
			],
			"type":"VEC3"
		},
		{
			"bufferView":1,
			"componentType":5126,
			"count":899,
			"type":"VEC2"
		},
		{
			"bufferView":2,
			"componentType":5126,
			"count":899,
			"type":"VEC3"
		},
		{
			"bufferView":3,
			"componentType":5123,
			"count":2928,
			"type":"SCALAR"
		}
	],
	"bufferViews":[
		{
			"buffer":0,
			"byteLength":10788,
			"byteOffset":0,
			"target":34962
		},
		{
			"buffer":0,
			"byteLength":7192,
			"byteOffset":10788,
			"target":34962
		},
		{
			"buffer":0,
			"byteLength":10788,
			"byteOffset":17980,
			"target":34962
		},
		{
			"buffer":0,
			"byteLength":5856,
			"byteOffset":28768,
			"target":34963
		}
	],
	"buffers":[
		{
			"byteLength":34624,
			"uri":"data:application/octet-stream;base64,"
		}
	]
}
