{
  "accessors": [
    {
      "bufferView": 2,
      "componentType": 5126,
      "count": 2193,
      "max": [
        3.191025733947754,
        1.6251314878463745,
        1.69252610206604
      ],
      "min": [
        -0.6415938138961792,
        -1.1102163791656494,
        -1.9388706684112549
      ],
      "type": "VEC3"
    },
    {
      "bufferView": 2,
      "byteOffset": 26316,
      "componentType": 5126,
      "count": 2193,
      "max": [
        0.9988510608673096,
        0.999978244304657,
        0.9998823404312134
      ],
      "min": [
        -0.9987252354621887,
        -0.999852180480957,
        -0.9998822808265686
      ],
      "type": "VEC3"
    },
    {
      "bufferView": 1,
      "componentType": 5126,
      "count": 2193,
      "max": [
        1.0,
        1.0
      ],
      "min": [
        0.0,
        0.0
      ],
      "type": "VEC2"
    },
    {
      "bufferView": 0,
      "componentType": 5125,
      "count": 7836,
      "type": "SCALAR"
    },
    {
      "bufferView": 2,
      "byteOffset": 52632,
      "componentType": 5126,
      "count": 2265,
      "max": [
        1.6692112684249878,
        1.9931515455245972,
        1.9184083938598633
      ],
      "min": [
        -1.211173415184021,
        -2.0426647663116455,
        -2.1174516677856445
      ],
      "type": "VEC3"
    },
    {
      "bufferView": 2,
      "byteOffset": 79812,
      "componentType": 5126,
      "count": 2265,
      "max": [
        0.9998006224632263,
        0.9999645352363586,
        1.0
      ],
      "min": [
        -0.9965160489082336,
        -0.9972001314163208,
        -1.0
      ],
      "type": "VEC3"
    },
    {
      "bufferView": 1,
      "byteOffset": 17544,
      "componentType": 5126,
      "count": 2265,
      "max": [
        1.0,
        1.0
      ],
      "min": [
        0.0,
        0.0
      ],
      "type": "VEC2"
    },
    {
      "bufferView": 0,
      "byteOffset": 31344,
      "componentType": 5125,
      "count": 9330,
      "type": "SCALAR"
    },
    {
      "bufferView": 2,
      "byteOffset": 106992,
      "componentType": 5126,
      "count": 1810,
      "max": [
        1.429540753364563,
        1.6882144212722778,
        2.1702170372009277
      ],
      "min": [
        -2.9268860816955566,
        -1.734434723854065,
        -2.3600120544433594
      ],
      "type": "VEC3"
    },
    {
      "bufferView": 2,
      "byteOffset": 128712,
      "componentType": 5126,
      "count": 1810,
      "max": [
        0.9998151659965515,
        0.999991774559021,
        1.0
      ],
      "min": [
        -0.9992090463638306,
        -0.9999903440475464,
        -1.0
      ],
      "type": "VEC3"
    },
    {
      "bufferView": 1,
      "byteOffset": 35664,
      "componentType": 5126,
      "count": 1810,
      "max": [
        1.0,
        1.0
      ],
      "min": [
        0.0,
        0.0
      ],
      "type": "VEC2"
    },
    {
      "bufferView": 0,
      "byteOffset": 68664,
      "componentType": 5125,
      "count": 5808,
      "type": "SCALAR"
    },
    {
      "bufferView": 2,
      "byteOffset": 150432,
      "componentType": 5126,
      "count": 2197,
      "max": [
        1.0595977306365967,
        2.7954063415527344,
        1.8181310892105103
      ],
      "min": [
        -1.6836988925933838,
        -1.3066977262496948,
        -1.8132661581039429
      ],
      "type": "VEC3"
    },
    {
      "bufferView": 2,
      "byteOffset": 176796,
      "componentType": 5126,
      "count": 2197,
      "max": [
        1.0,
        0.9991032481193542,
        0.9999804496765137
      ],
      "min": [
        -1.0,
        -0.9989988207817078,
        -0.9999956488609314
      ],
      "type": "VEC3"
    },
    {
      "bufferView": 1,
      "byteOffset": 50144,
      "componentType": 5126,
      "count": 2197,
      "max": [
        1.0,
        1.0
      ],
      "min": [
        0.0,
        0.0
      ],
      "type": "VEC2"
    },
    {
      "bufferView": 0,
      "byteOffset": 91896,
      "componentType": 5125,
      "count": 7632,
      "type": "SCALAR"
    },
    {
      "bufferView": 2,
      "byteOffset": 203160,
      "componentType": 5126,
      "count": 2246,
      "max": [
        1.070602297782898,
        3.716944694519043,
        2.732325792312622
      ],
      "min": [
        -1.8912668228149414,
        -0.9891968965530396,
        -2.7596564292907715
      ],
      "type": "VEC3"
    },
    {
      "bufferView": 2,
      "byteOffset": 230112,
      "componentType": 5126,
      "count": 2246,
      "max": [
        1.0,
        0.9951848387718201,
        0.9951851963996887
      ],
      "min": [
        -1.0,
        -0.9989810585975647,
        -0.9951860904693604
      ],
      "type": "VEC3"
    },
    {
      "bufferView": 1,
      "byteOffset": 67720,
      "componentType": 5126,
      "count": 2246,
      "max": [
        1.0,
        1.0
      ],
      "min": [
        0.0,
        0.0
      ],
      "type": "VEC2"
    },
    {
      "bufferView": 0,
      "byteOffset": 122424,
      "componentType": 5125,
      "count": 6360,
      "type": "SCALAR"
    },
    {
      "bufferView": 2,
      "byteOffset": 257064,
      "componentType": 5126,
      "count": 344,
      "max": [
        0.73198401927948,
        2.2186577320098877,
        0.9004926681518555
      ],
      "min": [
        0.28311505913734436,
        1.2351042032241821,
        -0.9278227090835571
      ],
      "type": "VEC3"
    },
    {
      "bufferView": 2,
      "byteOffset": 261192,
      "componentType": 5126,
      "count": 344,
      "max": [
        0.9863275289535522,
        0.9734154343605042,
        0.9689903855323792
      ],
      "min": [
        -0.9863272905349731,
        -0.9743044376373291,
        -0.9689902067184448
      ],
      "type": "VEC3"
    },
    {
      "bufferView": 1,
      "byteOffset": 85688,
      "componentType": 5126,
      "count": 344,
      "max": [
        1.0,
        1.0
      ],
      "min": [
        0.0,
        0.0
      ],
      "type": "VEC2"
    },
    {
      "bufferView": 0,
      "byteOffset": 147864,
      "componentType": 5125,
      "count": 1020,
      "type": "SCALAR"
    },
    {
      "bufferView": 2,
      "byteOffset": 265320,
      "componentType": 5126,
      "count": 309,
      "max": [
        0.6614822745323181,
        1.496989130973816,
        0.08830501139163971
      ],
      "min": [
        0.558789074420929,
        1.3618468046188354,
        -0.14714257419109344
      ],
      "type": "VEC3"
    },
    {
      "bufferView": 2,
      "byteOffset": 269028,
      "componentType": 5126,
      "count": 309,
      "max": [
        0.999671459197998,
        0.9020536541938782,
        1.0
      ],
      "min": [
        -0.9020562171936035,
        -0.9993089437484741,
        -1.0
      ],
      "type": "VEC3"
    },
    {
      "bufferView": 1,
      "byteOffset": 88440,
      "componentType": 5126,
      "count": 309,
      "max": [
        1.0,
        1.0
      ],
      "min": [
        0.0,
        0.01000000536441803
      ],
      "type": "VEC2"
    },
    {
      "bufferView": 0,
      "byteOffset": 151944,
      "componentType": 5125,
      "count": 948,
      "type": "SCALAR"
    },
    {
      "bufferView": 2,
      "byteOffset": 272736,
      "componentType": 5126,
      "count": 502,
      "max": [
        -0.43880873918533325,
        4.59348201751709,
        1.082772135734558
      ],
      "min": [
        -0.7834426760673523,
        3.4954583644866943,
        -1.1101031303405762
      ],
      "type": "VEC3"
    },
    {
      "bufferView": 2,
      "byteOffset": 278760,
      "componentType": 5126,
      "count": 502,
      "max": [
        1.0,
        0.99996417760849,
        0.99996417760849
      ],
      "min": [
        -1.0,
        -0.99998939037323,
        -0.9999641180038452
      ],
      "type": "VEC3"
    },
    {
      "bufferView": 1,
      "byteOffset": 90912,
      "componentType": 5126,
      "count": 502,
      "max": [
        1.0,
        1.0
      ],
      "min": [
        0.0,
        0.0
      ],
      "type": "VEC2"
    },
    {
      "bufferView": 0,
      "byteOffset": 155736,
      "componentType": 5125,
      "count": 1716,
      "type": "SCALAR"
    },
    {
      "bufferView": 2,
      "byteOffset": 284784,
      "componentType": 5126,
      "count": 2560,
      "max": [
        1.6707236766815186,
        5.102418899536133,
        1.9196090698242188
      ],
      "min": [
        -1.280140995979309,
        -0.09571054577827454,
        -1.7227683067321777
      ],
      "type": "VEC3"
    },
    {
      "bufferView": 2,
      "byteOffset": 315504,
      "componentType": 5126,
      "count": 2560,
      "max": [
        1.0,
        0.9999982118606567,
        0.9999765753746033
      ],
      "min": [
        -1.0,
        -0.9937049150466919,
        -0.9998822808265686
      ],
      "type": "VEC3"
    },
    {
      "bufferView": 1,
      "byteOffset": 94928,
      "componentType": 5126,
      "count": 2560,
      "max": [
        1.0,
        1.0
      ],
      "min": [
        0.0,
        0.0
      ],
      "type": "VEC2"
    },
    {
      "bufferView": 0,
      "byteOffset": 162600,
      "componentType": 5125,
      "count": 8100,
      "type": "SCALAR"
    },
    {
      "bufferView": 2,
      "byteOffset": 346224,
      "componentType": 5126,
      "count": 735,
      "max": [
        0.9076288938522339,
        5.32295036315918,
        1.686905860900879
      ],
      "min": [
        -0.2359967827796936,
        1.3637994527816772,
        -1.9552803039550781
      ],
      "type": "VEC3"
    },
    {
      "bufferView": 2,
      "byteOffset": 355044,
      "componentType": 5126,
      "count": 735,
      "max": [
        1.0,
        0.9972583055496216,
        0.9988627433776855
      ],
      "min": [
        -1.0,
        -0.9989988207817078,
        -0.9938005805015564
      ],
      "type": "VEC3"
    },
    {
      "bufferView": 1,
      "byteOffset": 115408,
      "componentType": 5126,
      "count": 735,
      "max": [
        1.0,
        1.0
      ],
      "min": [
        0.0,
        0.0
      ],
      "type": "VEC2"
    },
    {
      "bufferView": 0,
      "byteOffset": 195000,
      "componentType": 5125,
      "count": 2532,
      "type": "SCALAR"
    },
    {
      "bufferView": 2,
      "byteOffset": 363864,
      "componentType": 5126,
      "count": 186,
      "max": [
        0.9671064615249634,
        2.2327377796173096,
        1.3565921783447266
      ],
      "min": [
        -1.072572946548462,
        0.02617337554693222,
        -1.1487712860107422
      ],
      "type": "VEC3"
    },
    {
      "bufferView": 2,
      "byteOffset": 366096,
      "componentType": 5126,
      "count": 186,
      "max": [
        0.9922242164611816,
        0.9901360869407654,
        0.9861038327217102
      ],
      "min": [
        -0.9922242164611816,
        -0.9901360273361206,
        -0.9861037135124207
      ],
      "type": "VEC3"
    },
    {
      "bufferView": 1,
      "byteOffset": 121288,
      "componentType": 5126,
      "count": 186,
      "max": [
        0.875,
        1.0
      ],
      "min": [
        0.125,
        0.0
      ],
      "type": "VEC2"
    },
    {
      "bufferView": 0,
      "byteOffset": 205128,
      "componentType": 5125,
      "count": 852,
      "type": "SCALAR"
    },
    {
      "bufferView": 2,
      "byteOffset": 368328,
      "componentType": 5126,
      "count": 1296,
      "max": [
        1.2888402938842773,
        3.7178499698638916,
        1.4533805847167969
      ],
      "min": [
        0.7657248377799988,
        2.8102729320526123,
        -1.2700718641281128
      ],
      "type": "VEC3"
    },
    {
      "bufferView": 2,
      "byteOffset": 383880,
      "componentType": 5126,
      "count": 1296,
      "max": [
        0.9960409998893738,
        0.9934035539627075,
        0.9966284036636353
      ],
      "min": [
        -0.9764426946640015,
        -0.9934036731719971,
        -0.9966282844543457
      ],
      "type": "VEC3"
    },
    {
      "bufferView": 1,
      "byteOffset": 122776,
      "componentType": 5126,
      "count": 1296,
      "max": [
        1.0,
        1.0
      ],
      "min": [
        0.0,
        0.0
      ],
      "type": "VEC2"
    },
    {
      "bufferView": 0,
      "byteOffset": 208536,
      "componentType": 5125,
      "count": 2112,
      "type": "SCALAR"
    },
    {
      "bufferView": 2,
      "byteOffset": 399432,
      "componentType": 5126,
      "count": 309,
      "max": [
        1.3081320524215698,
        3.2499892711639404,
        0.2003871649503708
      ],
      "min": [
        1.1799627542495728,
        3.0434603691101074,
        -0.15811483561992645
      ],
      "type": "VEC3"
    },
    {
      "bufferView": 2,
      "byteOffset": 403140,
      "componentType": 5126,
      "count": 309,
      "max": [
        0.9953722953796387,
        0.9773696064949036,
        1.0
      ],
      "min": [
        -0.9773686528205872,
        -0.9996457695960999,
        -1.0
      ],
      "type": "VEC3"
    },
    {
      "bufferView": 1,
      "byteOffset": 133144,
      "componentType": 5126,
      "count": 309,
      "max": [
        1.0,
        1.0
      ],
      "min": [
        0.0,
        0.01000000536441803
      ],
      "type": "VEC2"
    },
    {
      "bufferView": 0,
      "byteOffset": 216984,
      "componentType": 5125,
      "count": 948,
      "type": "SCALAR"
    }
  ],
  "asset": {
    "extras": {
      "author": "gkari (https://sketchfab.com/gkari)",
      "license": "CC-BY-4.0 (http://creativecommons.org/licenses/by/4.0/)",
      "source": "https://sketchfab.com/3d-models/toys-kuromi-melody-and-hello-kitty-d7e22ef4ac674b24967c4aa75a37a327",
      "title": "Toys Kuromi, Melody and Hello Kitty"
    },
    "generator": "Sketchfab-15.53.0",
    "version": "2.0"
  },
  "bufferViews": [
    {
      "buffer": 0,
      "byteLength": 220776,
      "name": "floatBufferViews",
      "target": 34963
    },
    {
      "buffer": 0,
      "byteLength": 135616,
      "byteOffset": 220776,
      "byteStride": 8,
      "name": "floatBufferViews",
      "target": 34962
    },
    {
      "buffer": 0,
      "byteLength": 406848,
      "byteOffset": 356392,
      "byteStride": 12,
      "name": "floatBufferViews",
      "target": 34962
    }
  ],
  "buffers": [
    {
      "byteLength": 763240,
      "uri": "scene.bin"
    }
  ],
  "materials": [
    {
      "doubleSided": true,
      "name": "kuromi_wh",
      "pbrMetallicRoughness": {
        "baseColorFactor": [
          0.763283,
          0.699672,
          0.747076,
          1.0
        ],
        "metallicFactor": 0.0,
        "roughnessFactor": 0.9
      }
    },
    {
      "doubleSided": true,
      "name": "ruromi_pink",
      "pbrMetallicRoughness": {
        "baseColorFactor": [
          0.598394,
          0.267026,
          0.280068,
          1.0
        ],
        "metallicFactor": 0.0,
        "roughnessFactor": 0.9
      }
    },
    {
      "doubleSided": true,
      "name": "keromi_bl",
      "pbrMetallicRoughness": {
        "baseColorFactor": [
          0.026239,
          0.0211615,
          0.0232289,
          1.0
        ],
        "metallicFactor": 0.0,
        "roughnessFactor": 0.9
      }
    },
    {
      "doubleSided": true,
      "name": "melody_pink",
      "pbrMetallicRoughness": {
        "baseColorFactor": [
          0.8,
          0.265881,
          0.357057,
          1.0
        ],
        "metallicFactor": 0.0,
        "roughnessFactor": 0.9
      }
    },
    {
      "doubleSided": true,
      "name": "mel_yel",
      "pbrMetallicRoughness": {
        "baseColorFactor": [
          0.8,
          0.566905,
          0.12751,
          1.0
        ],
        "metallicFactor": 0.0,
        "roughnessFactor": 0.9
      }
    },
    {
      "doubleSided": true,
      "name": "melody_blue",
      "pbrMetallicRoughness": {
        "baseColorFactor": [
          0.120684,
          0.524275,
          0.8,
          1.0
        ],
        "metallicFactor": 0.0,
        "roughnessFactor": 0.9
      }
    },
    {
      "doubleSided": true,
      "name": "hk_pink",
      "pbrMetallicRoughness": {
        "baseColorFactor": [
          0.799103,
          0.242677,
          0.302915,
          1.0
        ],
        "metallicFactor": 0.0,
        "roughnessFactor": 0.9
      }
    },
    {
      "doubleSided": true,
      "name": "hk_red",
      "pbrMetallicRoughness": {
        "baseColorFactor": [
          0.799103,
          0.0681598,
          0.147291,
          1.0
        ],
        "metallicFactor": 0.0,
        "roughnessFactor": 0.9
      }
    }
  ],
  "meshes": [
    {
      "name": "Object_0",
      "primitives": [
        {
          "attributes": {
            "NORMAL": 1,
            "POSITION": 0,
            "TEXCOORD_0": 2
          },
          "indices": 3,
          "material": 0,
          "mode": 4
        }
      ]
    },
    {
      "name": "Object_1",
      "primitives": [
        {
          "attributes": {
            "NORMAL": 5,
            "POSITION": 4,
            "TEXCOORD_0": 6
          },
          "indices": 7,
          "material": 1,
          "mode": 4
        }
      ]
    },
    {
      "name": "Object_2",
      "primitives": [
        {
          "attributes": {
            "NORMAL": 9,
            "POSITION": 8,
            "TEXCOORD_0": 10
          },
          "indices": 11,
          "material": 2,
          "mode": 4
        }
      ]
    },
    {
      "name": "Object_3",
      "primitives": [
        {
          "attributes": {
            "NORMAL": 13,
            "POSITION": 12,
            "TEXCOORD_0": 14
          },
          "indices": 15,
          "material": 0,
          "mode": 4
        }
      ]
    },
    {
      "name": "Object_4",
      "primitives": [
        {
          "attributes": {
            "NORMAL": 17,
            "POSITION": 16,
            "TEXCOORD_0": 18
          },
          "indices": 19,
          "material": 3,
          "mode": 4
        }
      ]
    },
    {
      "name": "Object_5",
      "primitives": [
        {
          "attributes": {
            "NORMAL": 21,
            "POSITION": 20,
            "TEXCOORD_0": 22
          },
          "indices": 23,
          "material": 2,
          "mode": 4
        }
      ]
    },
    {
      "name": "Object_6",
      "primitives": [
        {
          "attributes": {
            "NORMAL": 25,
            "POSITION": 24,
            "TEXCOORD_0": 26
          },
          "indices": 27,
          "material": 4,
          "mode": 4
        }
      ]
    },
    {
      "name": "Object_7",
      "primitives": [
        {
          "attributes": {
            "NORMAL": 29,
            "POSITION": 28,
            "TEXCOORD_0": 30
          },
          "indices": 31,
          "material": 5,
          "mode": 4
        }
      ]
    },
    {
      "name": "Object_8",
      "primitives": [
        {
          "attributes": {
            "NORMAL": 33,
            "POSITION": 32,
            "TEXCOORD_0": 34
          },
          "indices": 35,
          "material": 0,
          "mode": 4
        }
      ]
    },
    {
      "name": "Object_9",
      "primitives": [
        {
          "attributes": {
            "NORMAL": 37,
            "POSITION": 36,
            "TEXCOORD_0": 38
          },
          "indices": 39,
          "material": 6,
          "mode": 4
        }
      ]
    },
    {
      "name": "Object_10",
      "primitives": [
        {
          "attributes": {
            "NORMAL": 41,
            "POSITION": 40,
            "TEXCOORD_0": 42
          },
          "indices": 43,
          "material": 7,
          "mode": 4
        }
      ]
    },
    {
      "name": "Object_11",
      "primitives": [
        {
          "attributes": {
            "NORMAL": 45,
            "POSITION": 44,
            "TEXCOORD_0": 46
          },
          "indices": 47,
          "material": 2,
          "mode": 4
        }
      ]
    },
    {
      "name": "Object_12",
      "primitives": [
        {
          "attributes": {
            "NORMAL": 49,
            "POSITION": 48,
            "TEXCOORD_0": 50
          },
          "indices": 51,
          "material": 4,
          "mode": 4
        }
      ]
    }
  ],
  "nodes": [
    {
      "children": [
        1
      ],
      "matrix": [
        1.0,
        0.0,
        0.0,
        0.0,
        0.0,
        2.220446049250313e-16,
        -1.0,
        0.0,
        0.0,
        1.0,
        2.220446049250313e-16,
        0.0,
        0.0,
        0.0,
        0.0,
        1.0
      ],
      "name": "Sketchfab_model"
    },
    {
      "children": [
        2
      ],
      "name": "root"
    },
    {
      "children": [
        3,
        7,
        13
      ],
      "matrix": [
        1.0,
        0.0,
        0.0,
        0.0,
        0.0,
        2.220446049250313e-16,
        1.0,
        0.0,
        0.0,
        -1.0,
        2.220446049250313e-16,
        0.0,
        0.0,
        0.0,
        0.0,
        1.0
      ],
      "name": "GLTF_SceneRootNode"
    },
    {
      "children": [
        4,
        5,
        6
      ],
      "matrix": [
        2.9544930502112265e-08,
        -0.9998520919100062,
        0.0171986715528758,
        0.0,
        -3.005750975892951e-08,
        0.01719867155287491,
        0.9998520919100061,
        0.0,
        -0.9999999999999991,
        -3.005750970341836e-08,
        -2.9544930502112265e-08,
        0.0,
        -5.8461174964904785,
        3.0694375038146973,
        -0.15175962448120117,
        1.0
      ],
      "name": "Plane_0"
    },
    {
      "mesh": 0,
      "name": "Object_4"
    },
    {
      "mesh": 1,
      "name": "Object_5"
    },
    {
      "mesh": 2,
      "name": "Object_6"
    },
    {
      "children": [
        8,
        9,
        10,
        11,
        12
      ],
      "matrix": [
        0.0,
        0.0,
        1.0,
        0.0,
        0.0,
        1.0,
        0.0,
        0.0,
        -1.0,
        0.0,
        0.0,
        0.0,
        0.29239422082901,
        1.210985779762268,
        0.4593663215637207,
        1.0
      ],
      "name": "Plane.002_1"
    },
    {
      "mesh": 3,
      "name": "Object_8"
    },
    {
      "mesh": 4,
      "name": "Object_9"
    },
    {
      "mesh": 5,
      "name": "Object_10"
    },
    {
      "mesh": 6,
      "name": "Object_11"
    },
    {
      "mesh": 7,
      "name": "Object_12"
    },
    {
      "children": [
        14,
        15,
        16,
        17,
        18
      ],
      "matrix": [
        0.0,
        0.0,
        1.0,
        0.0,
        0.0,
        1.0,
        0.0,
        0.0,
        -1.0,
        -0.0,
        0.0,
        0.0,
        6.164848804473877,
        0.0,
        -0.15175914764404297,
        1.0
      ],
      "name": "Plane.001_2"
    },
    {
      "mesh": 8,
      "name": "Object_14"
    },
    {
      "mesh": 9,
      "name": "Object_15"
    },
    {
      "mesh": 10,
      "name": "Object_16"
    },
    {
      "mesh": 11,
      "name": "Object_17"
    },
    {
      "mesh": 12,
      "name": "Object_18"
    }
  ],
  "scene": 0,
  "scenes": [
    {
      "name": "Sketchfab_Scene",
      "nodes": [
        0
      ]
    }
  ]
}
