{
  "accessors": [
    {
      "bufferView": 2,
      "componentType": 5126,
      "count": 64,
      "max": [
        0.015119999647140503,
        0.015119999647140503,
        -0.029999999329447746
      ],
      "min": [
        -0.015119999647140503,
        -0.015119999647140503,
        -0.12999999523162842
      ],
      "type": "VEC3"
    },
    {
      "bufferView": 2,
      "byteOffset": 768,
      "componentType": 5126,
      "count": 64,
      "max": [
        1.0,
        1.0,
        0.0
      ],
      "min": [
        -1.0,
        -1.0,
        0.0
      ],
      "type": "VEC3"
    },
    {
      "bufferView": 1,
      "componentType": 5126,
      "count": 64,
      "max": [
        0.0,
        0.0
      ],
      "min": [
        0.0,
        0.0
      ],
      "type": "VEC2"
    },
    {
      "bufferView": 0,
      "componentType": 5125,
      "count": 192,
      "type": "SCALAR"
    },
    {
      "bufferView": 2,
      "byteOffset": 1536,
      "componentType": 5126,
      "count": 3488,
      "max": [
        0.31368300318717957,
        0.3011380136013031,
        -0.12999999523162842
      ],
      "min": [
        -0.2592499852180481,
        -0.3011380136013031,
        -0.34062498807907104
      ],
      "type": "VEC3"
    },
    {
      "bufferView": 2,
      "byteOffset": 43392,
      "componentType": 5126,
      "count": 3488,
      "max": [
        1.0,
        1.0,
        1.0
      ],
      "min": [
        -1.0,
        -1.0,
        -1.0
      ],
      "type": "VEC3"
    },
    {
      "bufferView": 1,
      "byteOffset": 512,
      "componentType": 5126,
      "count": 3488,
      "max": [
        0.0,
        0.0
      ],
      "min": [
        0.0,
        0.0
      ],
      "type": "VEC2"
    },
    {
      "bufferView": 0,
      "byteOffset": 768,
      "componentType": 5125,
      "count": 9984,
      "type": "SCALAR"
    },
    {
      "bufferView": 2,
      "byteOffset": 85248,
      "componentType": 5126,
      "count": 25850,
      "max": [
        0.30669400095939636,
        0.2520900070667267,
        0.4199559986591339
      ],
      "min": [
        -0.2540479898452759,
        -0.25293898582458496,
        -0.020609000697731972
      ],
      "type": "VEC3"
    },
    {
      "bufferView": 2,
      "byteOffset": 395448,
      "componentType": 5126,
      "count": 25850,
      "max": [
        0.9969893097877502,
        1.0,
        0.9951865673065186
      ],
      "min": [
        -0.9977306723594666,
        -1.0,
        -0.9951865673065186
      ],
      "type": "VEC3"
    },
    {
      "bufferView": 1,
      "byteOffset": 28416,
      "componentType": 5126,
      "count": 25850,
      "max": [
        1.0,
        1.0099819898605347
      ],
      "min": [
        0.0,
        -0.1005140021443367
      ],
      "type": "VEC2"
    },
    {
      "bufferView": 0,
      "byteOffset": 40704,
      "componentType": 5125,
      "count": 40374,
      "type": "SCALAR"
    },
    {
      "bufferView": 2,
      "byteOffset": 705648,
      "componentType": 5126,
      "count": 16240,
      "max": [
        0.30669400095939636,
        0.2520900070667267,
        0.4199559986591339
      ],
      "min": [
        -0.2549999952316284,
        -0.25293898582458496,
        -0.039402998983860016
      ],
      "type": "VEC3"
    },
    {
      "bufferView": 2,
      "byteOffset": 900528,
      "componentType": 5126,
      "count": 16240,
      "max": [
        0.9999979734420776,
        0.5171089768409729,
        0.9999979734420776
      ],
      "min": [
        -0.9999984502792358,
        -0.9999762773513794,
        -1.0
      ],
      "type": "VEC3"
    },
    {
      "bufferView": 1,
      "byteOffset": 235216,
      "componentType": 5126,
      "count": 16240,
      "max": [
        0.9270820021629333,
        1.0099819898605347
      ],
      "min": [
        0.0,
        -0.1005140021443367
      ],
      "type": "VEC2"
    },
    {
      "bufferView": 0,
      "byteOffset": 202200,
      "componentType": 5125,
      "count": 59466,
      "type": "SCALAR"
    },
    {
      "bufferView": 2,
      "byteOffset": 1095408,
      "componentType": 5126,
      "count": 3275,
      "max": [
        1.0,
        1.0,
        0.012027000077068806
      ],
      "min": [
        -1.0,
        -1.0,
        -0.34051600098609924
      ],
      "type": "VEC3"
    },
    {
      "bufferView": 2,
      "byteOffset": 1134708,
      "componentType": 5126,
      "count": 3275,
      "max": [
        1.0,
        1.0,
        1.0
      ],
      "min": [
        -1.0,
        -1.0,
        -1.0
      ],
      "type": "VEC3"
    },
    {
      "bufferView": 1,
      "byteOffset": 365136,
      "componentType": 5126,
      "count": 3275,
      "max": [
        1.0,
        1.0
      ],
      "min": [
        0.0,
        0.0
      ],
      "type": "VEC2"
    },
    {
      "bufferView": 0,
      "byteOffset": 440064,
      "componentType": 5125,
      "count": 14766,
      "type": "SCALAR"
    }
  ],
  "asset": {
    "extras": {
      "author": "gabrielconte2 (https://sketchfab.com/gabrielconte2)",
      "license": "CC-BY-4.0 (http://creativecommons.org/licenses/by/4.0/)",
      "source": "https://sketchfab.com/3d-models/desk-chair-5deeac084b77464ba38e54a319a6dcf4",
      "title": "Desk chair"
    },
    "generator": "Sketchfab-12.66.0",
    "version": "2.0"
  },
  "bufferViews": [
    {
      "buffer": 0,
      "byteLength": 499128,
      "name": "floatBufferViews",
      "target": 34963
    },
    {
      "buffer": 0,
      "byteLength": 391336,
      "byteOffset": 499128,
      "byteStride": 8,
      "name": "floatBufferViews",
      "target": 34962
    },
    {
      "buffer": 0,
      "byteLength": 1174008,
      "byteOffset": 890464,
      "byteStride": 12,
      "name": "floatBufferViews",
      "target": 34962
    }
  ],
  "buffers": [
    {
      "byteLength": 2064472,
      "uri": "scene.bin"
    }
  ],
  "materials": [
    {
      "doubleSided": true,
      "name": "Black",
      "pbrMetallicRoughness": {
        "baseColorFactor": [
          0.0,
          0.0,
          0.0,
          1.0
        ],
        "metallicFactor": 0.0,
        "roughnessFactor": 0.7880318375580224
      }
    },
    {
      "doubleSided": true,
      "name": "Metal",
      "pbrMetallicRoughness": {
        "baseColorFactor": [
          0.20155625379439707,
          0.20155625379439707,
          0.20155625379439707,
          1.0
        ],
        "metallicFactor": 0.0,
        "roughnessFactor": 0.20786744006469304
      }
    },
    {
      "doubleSided": true,
      "name": "Pink",
      "pbrMetallicRoughness": {
        "baseColorFactor": [
          0.7991027380144086,
          0.12477181756095049,
          0.31854677812509186,
          1.0
        ],
        "metallicFactor": 0.0,
        "roughnessFactor": 0.3416312496579902
      }
    },
    {
      "doubleSided": true,
      "name": "White",
      "pbrMetallicRoughness": {
        "metallicFactor": 0.0,
        "roughnessFactor": 0.5909183493545895
      }
    }
  ],
  "meshes": [
    {
      "name": "Object_0",
      "primitives": [
        {
          "attributes": {
            "NORMAL": 1,
            "POSITION": 0,
            "TEXCOORD_0": 2
          },
          "indices": 3,
          "material": 1,
          "mode": 4
        }
      ]
    },
    {
      "name": "Object_1",
      "primitives": [
        {
          "attributes": {
            "NORMAL": 5,
            "POSITION": 4,
            "TEXCOORD_0": 6
          },
          "indices": 7,
          "material": 0,
          "mode": 4
        }
      ]
    },
    {
      "name": "Object_2",
      "primitives": [
        {
          "attributes": {
            "NORMAL": 9,
            "POSITION": 8,
            "TEXCOORD_0": 10
          },
          "indices": 11,
          "material": 2,
          "mode": 4
        }
      ]
    },
    {
      "name": "Object_3",
      "primitives": [
        {
          "attributes": {
            "NORMAL": 13,
            "POSITION": 12,
            "TEXCOORD_0": 14
          },
          "indices": 15,
          "material": 2,
          "mode": 4
        }
      ]
    },
    {
      "name": "Object_4",
      "primitives": [
        {
          "attributes": {
            "NORMAL": 17,
            "POSITION": 16,
            "TEXCOORD_0": 18
          },
          "indices": 19,
          "material": 3,
          "mode": 4
        }
      ]
    }
  ],
  "nodes": [
    {
      "children": [
        1
      ],
      "matrix": [
        1.0,
        0.0,
        0.0,
        0.0,
        0.0,
        2.220446049250313e-16,
        -1.0,
        0.0,
        0.0,
        1.0,
        2.220446049250313e-16,
        0.0,
        0.0,
        0.0,
        0.0,
        1.0
      ],
      "name": "Sketchfab_model"
    },
    {
      "children": [
        2,
        3,
        4,
        5,
        6
      ],
      "name": "SillaCami.obj.cleaner.materialmerger.gles"
    },
    {
      "mesh": 0,
      "name": "Object_2"
    },
    {
      "mesh": 1,
      "name": "Object_3"
    },
    {
      "mesh": 2,
      "name": "Object_4"
    },
    {
      "mesh": 3,
      "name": "Object_5"
    },
    {
      "mesh": 4,
      "name": "Object_6"
    }
  ],
  "scene": 0,
  "scenes": [
    {
      "name": "Sketchfab_Scene",
      "nodes": [
        0
      ]
    }
  ]
}
