{
  "accessors": [
    {
      "bufferView": 2,
      "componentType": 5126,
      "count": 72,
      "max": [
        0.24500000476837158,
        0.24500000476837158,
        0.2454443722963333
      ],
      "min": [
        -11.705414772033691,
        -0.24500000476837158,
        -0.24500000476837158
      ],
      "type": "VEC3"
    },
    {
      "bufferView": 2,
      "byteOffset": 864,
      "componentType": 5126,
      "count": 72,
      "max": [
        1.0,
        1.0,
        1.0
      ],
      "min": [
        -1.0,
        -1.0,
        -1.0
      ],
      "type": "VEC3"
    },
    {
      "bufferView": 1,
      "componentType": 5126,
      "count": 72,
      "max": [
        0.875,
        1.0
      ],
      "min": [
        0.125,
        0.00018434104276821017
      ],
      "type": "VEC2"
    },
    {
      "bufferView": 0,
      "componentType": 5125,
      "count": 108,
      "type": "SCALAR"
    },
    {
      "bufferView": 2,
      "byteOffset": 1728,
      "componentType": 5126,
      "count": 8,
      "max": [
        0.24500000476837158,
        0.24500000476837158,
        0.24463869631290436
      ],
      "min": [
        -11.705414772033691,
        -0.24500000476837158,
        -0.24500000476837158
      ],
      "type": "VEC3"
    },
    {
      "bufferView": 2,
      "byteOffset": 1824,
      "componentType": 5126,
      "count": 8,
      "max": [
        1.0,
        0.0,
        0.0
      ],
      "min": [
        -1.0,
        0.0,
        0.0
      ],
      "type": "VEC3"
    },
    {
      "bufferView": 1,
      "byteOffset": 576,
      "componentType": 5126,
      "count": 8,
      "max": [
        0.625,
        0.7498156428337097
      ],
      "min": [
        0.375,
        0.5
      ],
      "type": "VEC2"
    },
    {
      "bufferView": 0,
      "byteOffset": 432,
      "componentType": 5125,
      "count": 12,
      "type": "SCALAR"
    },
    {
      "bufferView": 2,
      "byteOffset": 1920,
      "componentType": 5126,
      "count": 52,
      "max": [
        1.0,
        5.125367641448975,
        1.0
      ],
      "min": [
        -1.0,
        -1.0,
        -1.0
      ],
      "type": "VEC3"
    },
    {
      "bufferView": 2,
      "byteOffset": 2544,
      "componentType": 5126,
      "count": 52,
      "max": [
        1.0,
        1.0,
        1.0
      ],
      "min": [
        -1.0,
        -1.0,
        -1.0
      ],
      "type": "VEC3"
    },
    {
      "bufferView": 1,
      "byteOffset": 640,
      "componentType": 5126,
      "count": 52,
      "max": [
        0.875,
        1.0
      ],
      "min": [
        0.125,
        0.0
      ],
      "type": "VEC2"
    },
    {
      "bufferView": 0,
      "byteOffset": 480,
      "componentType": 5125,
      "count": 78,
      "type": "SCALAR"
    },
    {
      "bufferView": 2,
      "byteOffset": 3168,
      "componentType": 5126,
      "count": 75,
      "max": [
        1.0,
        1.0,
        1.0
      ],
      "min": [
        -1.0,
        -3.849093437194824,
        -1.0
      ],
      "type": "VEC3"
    },
    {
      "bufferView": 2,
      "byteOffset": 4068,
      "componentType": 5126,
      "count": 75,
      "max": [
        0.7071086764335632,
        0.7071086764335632,
        1.0
      ],
      "min": [
        -0.7071086764335632,
        -0.7071086764335632,
        -1.0
      ],
      "type": "VEC3"
    },
    {
      "bufferView": 1,
      "byteOffset": 1056,
      "componentType": 5126,
      "count": 75,
      "max": [
        0.875,
        0.9986087679862976
      ],
      "min": [
        0.125,
        0.2486087828874588
      ],
      "type": "VEC2"
    },
    {
      "bufferView": 0,
      "byteOffset": 792,
      "componentType": 5125,
      "count": 99,
      "type": "SCALAR"
    },
    {
      "bufferView": 2,
      "byteOffset": 4968,
      "componentType": 5126,
      "count": 117,
      "max": [
        1.0,
        1.0,
        1.0
      ],
      "min": [
        -1.0,
        -3.849093437194824,
        -0.98887038230896
      ],
      "type": "VEC3"
    },
    {
      "bufferView": 2,
      "byteOffset": 6372,
      "componentType": 5126,
      "count": 117,
      "max": [
        1.0,
        1.0,
        0.7071068286895752
      ],
      "min": [
        -1.0,
        -1.0,
        0.0
      ],
      "type": "VEC3"
    },
    {
      "bufferView": 1,
      "byteOffset": 1656,
      "componentType": 5126,
      "count": 117,
      "max": [
        0.875,
        1.0
      ],
      "min": [
        0.125,
        0.0
      ],
      "type": "VEC2"
    },
    {
      "bufferView": 0,
      "byteOffset": 1188,
      "componentType": 5125,
      "count": 165,
      "type": "SCALAR"
    },
    {
      "bufferView": 2,
      "byteOffset": 7776,
      "componentType": 5126,
      "count": 11651,
      "max": [
        8.19931697845459,
        1.0,
        3.158444881439209
      ],
      "min": [
        -8.199316024780273,
        -18.298084259033203,
        -4.935327529907227
      ],
      "type": "VEC3"
    },
    {
      "bufferView": 2,
      "byteOffset": 147588,
      "componentType": 5126,
      "count": 11651,
      "max": [
        1.0,
        1.0,
        1.0
      ],
      "min": [
        -1.0,
        -1.0,
        -1.0
      ],
      "type": "VEC3"
    },
    {
      "bufferView": 1,
      "byteOffset": 2592,
      "componentType": 5126,
      "count": 11651,
      "max": [
        0.75,
        0.875
      ],
      "min": [
        0.0,
        0.0
      ],
      "type": "VEC2"
    },
    {
      "bufferView": 0,
      "byteOffset": 1848,
      "componentType": 5125,
      "count": 20064,
      "type": "SCALAR"
    },
    {
      "bufferView": 2,
      "byteOffset": 287400,
      "componentType": 5126,
      "count": 768,
      "max": [
        1.0000076293945313,
        1.0000039339065552,
        64.76393127441406
      ],
      "min": [
        -83.57838439941406,
        -1.0,
        -1.0
      ],
      "type": "VEC3"
    },
    {
      "bufferView": 2,
      "byteOffset": 296616,
      "componentType": 5126,
      "count": 768,
      "max": [
        0.9951866865158081,
        1.0,
        0.9951848983764648
      ],
      "min": [
        -0.9951848983764648,
        -1.0,
        -0.9951848983764648
      ],
      "type": "VEC3"
    },
    {
      "bufferView": 1,
      "byteOffset": 95800,
      "componentType": 5126,
      "count": 768,
      "max": [
        1.0,
        1.0
      ],
      "min": [
        0.0,
        0.01000000536441803
      ],
      "type": "VEC2"
    },
    {
      "bufferView": 0,
      "byteOffset": 82104,
      "componentType": 5125,
      "count": 1488,
      "type": "SCALAR"
    },
    {
      "bufferView": 2,
      "byteOffset": 305832,
      "componentType": 5126,
      "count": 4674,
      "max": [
        1.0402692556381226,
        1.0,
        1.0402697324752808
      ],
      "min": [
        -9.623291969299316,
        -0.5059415102005005,
        -10.275077819824219
      ],
      "type": "VEC3"
    },
    {
      "bufferView": 2,
      "byteOffset": 361920,
      "componentType": 5126,
      "count": 4674,
      "max": [
        1.0,
        1.0,
        1.0
      ],
      "min": [
        -1.0,
        -1.0,
        -1.0
      ],
      "type": "VEC3"
    },
    {
      "bufferView": 1,
      "byteOffset": 101944,
      "componentType": 5126,
      "count": 4674,
      "max": [
        1.0,
        1.0
      ],
      "min": [
        0.0,
        0.01000000536441803
      ],
      "type": "VEC2"
    },
    {
      "bufferView": 0,
      "byteOffset": 88056,
      "componentType": 5125,
      "count": 19920,
      "type": "SCALAR"
    },
    {
      "bufferView": 2,
      "byteOffset": 418008,
      "componentType": 5126,
      "count": 4,
      "max": [
        0.8276410102844238,
        1.032435655593872,
        -1.0
      ],
      "min": [
        -1.0,
        -1.0,
        -1.0
      ],
      "type": "VEC3"
    },
    {
      "bufferView": 2,
      "byteOffset": 418056,
      "componentType": 5126,
      "count": 4,
      "max": [
        0.0,
        -0.0,
        1.0
      ],
      "min": [
        0.0,
        -0.0,
        1.0
      ],
      "type": "VEC3"
    },
    {
      "bufferView": 1,
      "byteOffset": 139336,
      "componentType": 5126,
      "count": 4,
      "max": [
        0.625,
        0.5
      ],
      "min": [
        0.375,
        0.25
      ],
      "type": "VEC2"
    },
    {
      "bufferView": 0,
      "byteOffset": 167736,
      "componentType": 5125,
      "count": 6,
      "type": "SCALAR"
    },
    {
      "bufferView": 2,
      "byteOffset": 418104,
      "componentType": 5126,
      "count": 316,
      "max": [
        1.4758583307266235,
        1.0626835823059082,
        1.1101107597351074
      ],
      "min": [
        -1.3833544254302979,
        -1.0626840591430664,
        -0.7483377456665039
      ],
      "type": "VEC3"
    },
    {
      "bufferView": 2,
      "byteOffset": 421896,
      "componentType": 5126,
      "count": 316,
      "max": [
        0.9995828866958618,
        0.9429599642753601,
        1.0
      ],
      "min": [
        -0.998589038848877,
        -0.9429599642753601,
        -1.0
      ],
      "type": "VEC3"
    },
    {
      "bufferView": 1,
      "byteOffset": 139368,
      "componentType": 5126,
      "count": 316,
      "max": [
        0.0,
        0.0
      ],
      "min": [
        0.0,
        0.0
      ],
      "type": "VEC2"
    },
    {
      "bufferView": 0,
      "byteOffset": 167760,
      "componentType": 5125,
      "count": 696,
      "type": "SCALAR"
    },
    {
      "bufferView": 2,
      "byteOffset": 425688,
      "componentType": 5126,
      "count": 24,
      "max": [
        0.8276410102844238,
        1.0,
        -0.7182515859603882
      ],
      "min": [
        -1.0,
        -1.0,
        -1.0
      ],
      "type": "VEC3"
    },
    {
      "bufferView": 2,
      "byteOffset": 425976,
      "componentType": 5126,
      "count": 24,
      "max": [
        1.0,
        1.0,
        1.0
      ],
      "min": [
        -1.0,
        -1.0,
        -1.0
      ],
      "type": "VEC3"
    },
    {
      "bufferView": 1,
      "byteOffset": 141896,
      "componentType": 5126,
      "count": 24,
      "max": [
        0.875,
        1.0
      ],
      "min": [
        0.125,
        0.0
      ],
      "type": "VEC2"
    },
    {
      "bufferView": 0,
      "byteOffset": 170544,
      "componentType": 5125,
      "count": 36,
      "type": "SCALAR"
    },
    {
      "bufferView": 2,
      "byteOffset": 426264,
      "componentType": 5126,
      "count": 184,
      "max": [
        0.2449999898672104,
        0.24500000476837158,
        0.24500003457069397
      ],
      "min": [
        -0.24500000476837158,
        -7.186666965484619,
        -0.24500003457069397
      ],
      "type": "VEC3"
    },
    {
      "bufferView": 2,
      "byteOffset": 428472,
      "componentType": 5126,
      "count": 184,
      "max": [
        1.0,
        1.0,
        1.0
      ],
      "min": [
        -1.0,
        -1.0,
        -1.0
      ],
      "type": "VEC3"
    },
    {
      "bufferView": 1,
      "byteOffset": 142088,
      "componentType": 5126,
      "count": 184,
      "max": [
        0.6255683898925781,
        1.0
      ],
      "min": [
        0.125,
        0.0
      ],
      "type": "VEC2"
    },
    {
      "bufferView": 0,
      "byteOffset": 170688,
      "componentType": 5125,
      "count": 252,
      "type": "SCALAR"
    },
    {
      "bufferView": 2,
      "byteOffset": 430680,
      "componentType": 5126,
      "count": 8,
      "max": [
        0.2438860535621643,
        0.24500000476837158,
        0.2438860833644867
      ],
      "min": [
        -0.2438860684633255,
        -7.186666965484619,
        -0.2438860833644867
      ],
      "type": "VEC3"
    },
    {
      "bufferView": 2,
      "byteOffset": 430776,
      "componentType": 5126,
      "count": 8,
      "max": [
        0.0,
        1.0,
        0.0
      ],
      "min": [
        0.0,
        -1.0,
        0.0
      ],
      "type": "VEC3"
    },
    {
      "bufferView": 1,
      "byteOffset": 143560,
      "componentType": 5126,
      "count": 8,
      "max": [
        0.8744316697120667,
        0.7494317293167114
      ],
      "min": [
        0.6255683302879333,
        0.5005683302879333
      ],
      "type": "VEC2"
    },
    {
      "bufferView": 0,
      "byteOffset": 171696,
      "componentType": 5125,
      "count": 12,
      "type": "SCALAR"
    }
  ],
  "asset": {
    "extras": {
      "author": "Modelling in Progress (https://sketchfab.com/ModellingInProgress)",
      "license": "CC-BY-4.0 (http://creativecommons.org/licenses/by/4.0/)",
      "source": "https://sketchfab.com/3d-models/drawer-white-and-pink-61242e76bd284fbd82ebb5b04ee2cd28",
      "title": "Drawer - White and Pink"
    },
    "generator": "Sketchfab-12.67.0",
    "version": "2.0"
  },
  "bufferViews": [
    {
      "buffer": 0,
      "byteLength": 171744,
      "name": "floatBufferViews",
      "target": 34963
    },
    {
      "buffer": 0,
      "byteLength": 143624,
      "byteOffset": 171744,
      "byteStride": 8,
      "name": "floatBufferViews",
      "target": 34962
    },
    {
      "buffer": 0,
      "byteLength": 430872,
      "byteOffset": 315368,
      "byteStride": 12,
      "name": "floatBufferViews",
      "target": 34962
    }
  ],
  "buffers": [
    {
      "byteLength": 746240,
      "uri": "scene.bin"
    }
  ],
  "materials": [
    {
      "doubleSided": true,
      "name": "material_0",
      "pbrMetallicRoughness": {
        "metallicFactor": 0.0,
        "roughnessFactor": 0.6
      }
    },
    {
      "doubleSided": true,
      "name": "white_more_roughness",
      "pbrMetallicRoughness": {
        "baseColorFactor": [
          0.8,
          0.8,
          0.8,
          1.0
        ],
        "metallicFactor": 0.0,
        "roughnessFactor": 0.5
      }
    },
    {
      "doubleSided": true,
      "name": "white_less_roughness",
      "pbrMetallicRoughness": {
        "baseColorFactor": [
          0.8,
          0.8,
          0.8,
          1.0
        ],
        "metallicFactor": 0.0,
        "roughnessFactor": 0.2
      }
    },
    {
      "doubleSided": true,
      "name": "pink",
      "pbrMetallicRoughness": {
        "baseColorFactor": [
          0.814847,
          0.278894,
          0.737911,
          1.0
        ],
        "metallicFactor": 0.0,
        "roughnessFactor": 0.2
      }
    },
    {
      "doubleSided": true,
      "name": "foot",
      "pbrMetallicRoughness": {
        "baseColorFactor": [
          0.8,
          0.8,
          0.8,
          1.0
        ],
        "metallicFactor": 0.0,
        "roughnessFactor": 0.2
      }
    },
    {
      "doubleSided": true,
      "name": "top_bottom_material",
      "pbrMetallicRoughness": {
        "baseColorFactor": [
          0.814847,
          0.278894,
          0.737911,
          1.0
        ],
        "metallicFactor": 0.0,
        "roughnessFactor": 0.5
      }
    },
    {
      "doubleSided": true,
      "name": "top_bottom_roughness",
      "pbrMetallicRoughness": {
        "baseColorFactor": [
          0.814847,
          0.278894,
          0.737911,
          1.0
        ],
        "metallicFactor": 0.0,
        "roughnessFactor": 0.2
      }
    }
  ],
  "meshes": [
    {
      "name": "Object_0",
      "primitives": [
        {
          "attributes": {
            "NORMAL": 1,
            "POSITION": 0,
            "TEXCOORD_0": 2
          },
          "indices": 3,
          "material": 1,
          "mode": 4
        }
      ]
    },
    {
      "name": "Object_1",
      "primitives": [
        {
          "attributes": {
            "NORMAL": 5,
            "POSITION": 4,
            "TEXCOORD_0": 6
          },
          "indices": 7,
          "material": 2,
          "mode": 4
        }
      ]
    },
    {
      "name": "Object_2",
      "primitives": [
        {
          "attributes": {
            "NORMAL": 9,
            "POSITION": 8,
            "TEXCOORD_0": 10
          },
          "indices": 11,
          "material": 0,
          "mode": 4
        }
      ]
    },
    {
      "name": "Object_3",
      "primitives": [
        {
          "attributes": {
            "NORMAL": 13,
            "POSITION": 12,
            "TEXCOORD_0": 14
          },
          "indices": 15,
          "material": 2,
          "mode": 4
        }
      ]
    },
    {
      "name": "Object_4",
      "primitives": [
        {
          "attributes": {
            "NORMAL": 17,
            "POSITION": 16,
            "TEXCOORD_0": 18
          },
          "indices": 19,
          "material": 1,
          "mode": 4
        }
      ]
    },
    {
      "name": "Object_5",
      "primitives": [
        {
          "attributes": {
            "NORMAL": 21,
            "POSITION": 20,
            "TEXCOORD_0": 22
          },
          "indices": 23,
          "material": 3,
          "mode": 4
        }
      ]
    },
    {
      "name": "Object_6",
      "primitives": [
        {
          "attributes": {
            "NORMAL": 25,
            "POSITION": 24,
            "TEXCOORD_0": 26
          },
          "indices": 27,
          "material": 0,
          "mode": 4
        }
      ]
    },
    {
      "name": "Object_7",
      "primitives": [
        {
          "attributes": {
            "NORMAL": 29,
            "POSITION": 28,
            "TEXCOORD_0": 30
          },
          "indices": 31,
          "material": 4,
          "mode": 4
        }
      ]
    },
    {
      "name": "Object_8",
      "primitives": [
        {
          "attributes": {
            "NORMAL": 33,
            "POSITION": 32,
            "TEXCOORD_0": 34
          },
          "indices": 35,
          "material": 1,
          "mode": 4
        }
      ]
    },
    {
      "name": "Object_9",
      "primitives": [
        {
          "attributes": {
            "NORMAL": 37,
            "POSITION": 36,
            "TEXCOORD_0": 38
          },
          "indices": 39,
          "material": 1,
          "mode": 4
        }
      ]
    },
    {
      "name": "Object_10",
      "primitives": [
        {
          "attributes": {
            "NORMAL": 41,
            "POSITION": 40,
            "TEXCOORD_0": 42
          },
          "indices": 43,
          "material": 0,
          "mode": 4
        }
      ]
    },
    {
      "name": "Object_11",
      "primitives": [
        {
          "attributes": {
            "NORMAL": 45,
            "POSITION": 44,
            "TEXCOORD_0": 46
          },
          "indices": 47,
          "material": 5,
          "mode": 4
        }
      ]
    },
    {
      "name": "Object_12",
      "primitives": [
        {
          "attributes": {
            "NORMAL": 49,
            "POSITION": 48,
            "TEXCOORD_0": 50
          },
          "indices": 51,
          "material": 6,
          "mode": 4
        }
      ]
    }
  ],
  "nodes": [
    {
      "children": [
        1
      ],
      "matrix": [
        1.0,
        0.0,
        0.0,
        0.0,
        0.0,
        2.220446049250313e-16,
        -1.0,
        0.0,
        0.0,
        1.0,
        2.220446049250313e-16,
        0.0,
        0.0,
        0.0,
        0.0,
        1.0
      ],
      "name": "Sketchfab_model"
    },
    {
      "children": [
        2
      ],
      "name": "root"
    },
    {
      "children": [
        3
      ],
      "matrix": [
        1.0,
        0.0,
        0.0,
        0.0,
        0.0,
        2.220446049250313e-16,
        1.0,
        0.0,
        0.0,
        -1.0,
        2.220446049250313e-16,
        0.0,
        0.0,
        0.0,
        0.0,
        1.0
      ],
      "name": "GLTF_SceneRootNode"
    },
    {
      "children": [
        4,
        5,
        6,
        8,
        15,
        17,
        19,
        21,
        23
      ],
      "matrix": [
        0.040816325694322586,
        0.0,
        0.0,
        0.0,
        0.0,
        0.8061224818229675,
        0.0,
        0.0,
        0.0,
        0.0,
        0.8163264989852905,
        0.0,
        0.23388604819774628,
        -0.21250000596046448,
        -0.00904516875743866,
        1.0
      ],
      "name": "side_9"
    },
    {
      "mesh": 0,
      "name": "Object_4"
    },
    {
      "mesh": 1,
      "name": "Object_5"
    },
    {
      "children": [
        7
      ],
      "matrix": [
        5.457643032073975,
        0.0,
        0.0,
        0.0,
        0.0,
        0.03976314142346382,
        0.0,
        0.0,
        0.0,
        0.0,
        0.008374903351068497,
        0.0,
        -5.730207443237305,
        -0.08201879262924194,
        0.23800373077392578,
        1.0
      ],
      "name": "behind_pattern_0"
    },
    {
      "mesh": 2,
      "name": "Object_7"
    },
    {
      "children": [
        9,
        10,
        11
      ],
      "matrix": [
        5.9045000076293945,
        0.0,
        0.0,
        0.0,
        0.0,
        0.09910227358341217,
        0.0,
        0.0,
        0.0,
        0.0,
        0.011024999432265759,
        0.0,
        -5.659860610961914,
        0.14117582142353058,
        0.2589744031429291,
        1.0
      ],
      "name": "drawer_3"
    },
    {
      "mesh": 3,
      "name": "Object_9"
    },
    {
      "mesh": 4,
      "name": "Object_10"
    },
    {
      "children": [
        12,
        13
      ],
      "matrix": [
        0.08056014031171799,
        0.0,
        0.0,
        0.0,
        0.0,
        0.17744125425815582,
        0.0,
        0.0,
        0.0,
        0.0,
        0.14596571028232574,
        0.0,
        -0.011914127506315708,
        0.11015045642852783,
        2.9163265228271484,
        1.0
      ],
      "name": "drawer_handle_2"
    },
    {
      "mesh": 5,
      "name": "Object_12"
    },
    {
      "children": [
        14
      ],
      "matrix": [
        0.12113704532384872,
        0.0,
        0.0,
        0.0,
        0.0,
        -5.739546244096055e-06,
        6.189987659451686,
        0.0,
        0.0,
        -0.16591094434254192,
        -1.5383771177663664e-07,
        0.0,
        5.001650810241699,
        -3.3594770431518555,
        -7.5908203125,
        1.0
      ],
      "name": "Cylinder.001_1"
    },
    {
      "mesh": 6,
      "name": "Object_14"
    },
    {
      "children": [
        16
      ],
      "matrix": [
        0.9053247570991516,
        0.0,
        0.0,
        0.0,
        0.0,
        0.04583922401070595,
        0.0,
        0.0,
        0.0,
        0.0,
        0.04526623710989952,
        0.0,
        -1.8449959754943848,
        -0.3280543386936188,
        0.22009283304214478,
        1.0
      ],
      "name": "feet_4"
    },
    {
      "mesh": 7,
      "name": "Object_16"
    },
    {
      "children": [
        18
      ],
      "matrix": [
        6.063570976257324,
        0.0,
        0.0,
        0.0,
        0.0,
        0.24500000476837158,
        0.0,
        0.0,
        0.0,
        0.0,
        0.052612628787755966,
        0.0,
        -5.257536888122559,
        -0.004721909761428833,
        0.2825965881347656,
        1.0
      ],
      "name": "front_caution_5"
    },
    {
      "mesh": 8,
      "name": "Object_18"
    },
    {
      "children": [
        20
      ],
      "matrix": [
        3.8142380714416504,
        0.0,
        0.0,
        0.0,
        0.0,
        0.028978971764445305,
        0.0,
        0.0,
        0.0,
        0.0,
        0.00708371214568615,
        0.0,
        -5.905923366546631,
        0.0,
        0.23533812165260315,
        1.0
      ],
      "name": "pattern_6"
    },
    {
      "mesh": 9,
      "name": "Object_20"
    },
    {
      "children": [
        22
      ],
      "matrix": [
        6.002500057220459,
        0.0,
        0.0,
        0.0,
        0.0,
        0.24500000476837158,
        0.0,
        0.0,
        0.0,
        0.0,
        0.052612628787755966,
        0.0,
        -5.212914943695068,
        0.0,
        -0.1733030080795288,
        1.0
      ],
      "name": "rear_7"
    },
    {
      "mesh": 10,
      "name": "Object_22"
    },
    {
      "children": [
        24,
        25
      ],
      "matrix": [
        24.500003814697266,
        0.0,
        0.0,
        0.0,
        0.0,
        0.07594936341047287,
        0.0,
        0.0,
        0.0,
        0.0,
        1.0499999523162842,
        0.0,
        -5.730207443237305,
        0.26360759139060974,
        0.011080332100391388,
        1.0
      ],
      "name": "top_bottom_8"
    },
    {
      "mesh": 11,
      "name": "Object_24"
    },
    {
      "mesh": 12,
      "name": "Object_25"
    }
  ],
  "scene": 0,
  "scenes": [
    {
      "name": "Sketchfab_Scene",
      "nodes": [
        0
      ]
    }
  ]
}
